<svg xmlns="http://www.w3.org/2000/svg" viewBox="0 0 64.69 36.38"><defs><style>.cls-1{isolation:isolate;}.cls-2{font-size:7.93px;font-family:MyriadPro-Semibold, Myriad Pro;font-weight:600;}.cls-2,.cls-6{fill:#0c1827;}.cls-3{fill:#f9c321;}.cls-4{mix-blend-mode:soft-light;}.cls-5{fill:#fff;}.cls-7{fill:#fbba15;}</style></defs><g class="cls-1"><g id="Layer_2" data-name="Layer 2"><g id="Layer_1-2" data-name="Layer 1"><text class="cls-2" transform="translate(36.56 11.75)">P</text><text class="cls-2" transform="translate(40.84 11.75)">L</text><text class="cls-2" transform="translate(51.12 11.75)">Y</text><circle class="cls-3" cx="38.85" cy="8.04" r="1.21" transform="translate(28.08 46.22) rotate(-85.93)"/><g class="cls-4"><path class="cls-5" d="M38.17,8.3c-.32,0-.39,0-.41,0l-.11,0-.2-.13a1.2,1.2,0,0,1-.32-.35,1.41,1.41,0,0,1-.19-1,1.32,1.32,0,0,1,.48-.9c.16-.07.28-.22.5-.14a1.65,1.65,0,0,1,.35.27.76.76,0,0,1,.18.27,4.5,4.5,0,0,1,.31,1A10.42,10.42,0,0,0,39,8.47a2.31,2.31,0,0,0,.11.29,1.29,1.29,0,0,0,.21.31c.13.13.16,0,.23,0s.13-.29.07-.47a.68.68,0,0,0-.42-.41,1.23,1.23,0,0,0-.35,0,1.25,1.25,0,0,0-.19,0l-.09,0Z"/></g><text class="cls-2" transform="translate(45.4 11.75)">A</text><path class="cls-3" d="M39.48,8.33a.41.41,0,0,0,0,.29,6.24,6.24,0,0,1-.4,1.82.89.89,0,0,0,.08.75.55.55,0,0,0,.58.18.67.67,0,0,0,.41-.48,1.35,1.35,0,0,0-.19-.85,3.93,3.93,0,0,1-.28-1.62c0-.07,0-.15-.09-.14l0,0Z"/><g class="cls-4"><path class="cls-5" d="M39.43,9.67c.17.07.09.09.12.13l0,.12a2,2,0,0,1,0,.24,1.35,1.35,0,0,0,0,.38c0,.1.07.11.07.14s0,0,0,0l-.08.06,0,.08a1.71,1.71,0,0,0-.15.3c-.12.21-.16.2-.22.24a.2.2,0,0,1-.13,0,.58.58,0,0,1-.22-.08.51.51,0,0,1-.19-.34.88.88,0,0,1,.07-.65,2.1,2.1,0,0,1,.3-.38,1,1,0,0,0,.15-.14l.08-.07C39.31,9.71,39.25,9.66,39.43,9.67Z"/></g><text class="cls-2" transform="translate(41.1 11.75)">L</text><path class="cls-6" d="M34.54,21.88l10-2.83A3.67,3.67,0,0,1,44,22.12a4.38,4.38,0,0,1-2.53,1.93,4.76,4.76,0,0,1-2.54,0,4,4,0,0,1-2.11-1.32l-1.56.44a5.83,5.83,0,0,0,2.87,2.17,5.72,5.72,0,0,0,3.6.18,5.88,5.88,0,0,0,3.65-2.84,5.81,5.81,0,0,0,.52-4.58,5.8,5.8,0,0,0-2.83-3.63,6,6,0,0,0-6.86.72,6.3,6.3,0,0,0-1.55,2.15,5.61,5.61,0,0,0-.48,2.24A8.4,8.4,0,0,0,34.54,21.88Zm9.61-4.18-8.5,2.4a4.43,4.43,0,0,1,.79-2.92,4.2,4.2,0,0,1,2.44-1.78,4.51,4.51,0,0,1,3.07.19A4.16,4.16,0,0,1,44.15,17.7Z"/><path class="cls-6" d="M57.07,18.75,47,21.37a3.67,3.67,0,0,0,2,2.37,4.32,4.32,0,0,0,3.15.38,4.71,4.71,0,0,0,2.2-1.27,4,4,0,0,0,1.16-2.21l1.56-.41a5.89,5.89,0,0,1-1.37,3.33,5.72,5.72,0,0,1-3,2,6,6,0,0,1-7.35-4.29,5.84,5.84,0,0,1,.6-4.57,6,6,0,0,1,6.29-2.84,6.14,6.14,0,0,1,2.41,1.07,5.55,5.55,0,0,1,1.56,1.69A8.69,8.69,0,0,1,57.07,18.75ZM46.66,20l8.55-2.23a4.43,4.43,0,0,0-2.15-2.12,4.34,4.34,0,0,0-3-.31,4.52,4.52,0,0,0-2.55,1.73A4.21,4.21,0,0,0,46.66,20Z"/><path class="cls-7" d="M16.53,22.86a4.77,4.77,0,0,0,.32-6.4l1-1.62-1.63,1a4.77,4.77,0,1,0,.35,7.06Z"/><path class="cls-6" d="M15.89,23.79l-7-7a4.7,4.7,0,0,0-.56,1.47l6.11,6.11A4.64,4.64,0,0,0,15.89,23.79Z"/><path class="cls-6" d="M18,20.74l-6.11-6.11a4.44,4.44,0,0,0-1.48.56l7,7A4.66,4.66,0,0,0,18,20.74Z"/><path class="cls-6" d="M13.16,24.26a4.77,4.77,0,1,1,3-8.46l1.63-1-1,1.62a4.78,4.78,0,0,1-3.69,7.8m0,1.44a6.17,6.17,0,0,0,4.4-1.82,6.22,6.22,0,0,0,1-7.47l.49-.84a1.45,1.45,0,0,0-1.24-2.18,1.52,1.52,0,0,0-.74.2l-.83.5a6.25,6.25,0,0,0-3.08-.82,6.22,6.22,0,0,0,0,12.43Z"/><path class="cls-6" d="M9.52,12.86l-.45,0h0a.21.21,0,1,1,0-.42l.47,0a.21.21,0,0,1,.23.2.21.21,0,0,1-.2.22h0Z"/><path class="cls-6" d="M8.16,13l-.88.23h0A.21.21,0,0,1,7,13.1a.21.21,0,0,1,.15-.25l.93-.24a.21.21,0,1,1,.11.41h0Z"/><path class="cls-6" d="M6.43,13.57,5.61,14h0a.21.21,0,0,1-.28-.09.21.21,0,0,1,.1-.28l.85-.43a.21.21,0,1,1,.19.37h0Z"/><path class="cls-6" d="M4.85,14.48l-.72.57h0a.22.22,0,0,1-.3,0,.21.21,0,0,1,0-.29l.74-.59a.22.22,0,0,1,.3,0,.21.21,0,0,1,0,.29h0Z"/><path class="cls-6" d="M3.47,15.68l-.6.69h0a.21.21,0,0,1-.31-.27l.62-.71a.21.21,0,1,1,.31.27h0Z"/><path class="cls-6" d="M2.33,17.11l-.48.79h0a.2.2,0,0,1-.35-.21L2,16.89a.2.2,0,0,1,.28-.07.2.2,0,0,1,.07.28h0Z"/><path class="cls-6" d="M1.44,18.72l-.35.85h0a.2.2,0,0,1-.38-.15l.36-.88a.2.2,0,0,1,.27-.11.2.2,0,0,1,.11.26h0Z"/><path class="cls-6" d="M.81,20.44l-.21.9h0a.19.19,0,0,1-.24.15.19.19,0,0,1-.15-.24l.21-.93a.21.21,0,0,1,.25-.15.21.21,0,0,1,.15.25h0Z"/><path class="cls-6" d="M.47,22.24l-.07.92v0a.19.19,0,0,1-.21.18A.2.2,0,0,1,0,23.15l.07-.95A.19.19,0,0,1,.28,22a.22.22,0,0,1,.19.22h0Z"/><path class="cls-6" d="M.41,24.08.48,25v0a.21.21,0,0,1-.19.21A.19.19,0,0,1,.09,25L0,24.1a.2.2,0,1,1,.4,0h0Z"/><path class="cls-6" d="M.63,25.9l.22.89v0a.21.21,0,0,1-.15.24.21.21,0,0,1-.24-.15L.24,26a.2.2,0,0,1,.39-.1h0Z"/><path class="cls-6" d="M1.15,27.66l.38.83v0a.19.19,0,0,1-.1.26.21.21,0,0,1-.26-.1L.79,27.8a.19.19,0,0,1,.09-.26.2.2,0,0,1,.26.1h0Z"/><path class="cls-6" d="M2,29.28l.54.74v0a.19.19,0,0,1,0,.27.2.2,0,0,1-.27,0l-.56-.78a.18.18,0,0,1,0-.27.2.2,0,0,1,.27,0H2Z"/><path class="cls-6" d="M3.14,30.7l.67.62,0,0a.2.2,0,0,1,0,.27.2.2,0,0,1-.28,0L2.86,31a.2.2,0,0,1,0-.28.19.19,0,0,1,.27,0h0Z"/><path class="cls-6" d="M4.54,31.88l.78.48h0a.19.19,0,0,1,.06.26.21.21,0,0,1-.27.07l-.81-.51a.19.19,0,0,1-.06-.26.2.2,0,0,1,.27-.06h0Z"/><path class="cls-6" d="M6.14,32.78l.85.34H7a.19.19,0,0,1,.11.25.2.2,0,0,1-.25.1L6,33.12a.19.19,0,0,1,.14-.35h0Z"/><path class="cls-6" d="M7.87,33.4l.89.22h0a.19.19,0,0,1,.14.23.2.2,0,0,1-.23.14l-.92-.22a.2.2,0,0,1-.15-.23.19.19,0,0,1,.23-.14h0Z"/><path class="cls-6" d="M9.67,33.77l.92.09h0a.19.19,0,0,1,.17.2.19.19,0,0,1-.21.17l-.94-.09a.19.19,0,0,1-.17-.2.19.19,0,0,1,.21-.17h0Z"/><path class="cls-6" d="M11.51,33.89l.92,0h0a.18.18,0,0,1,.19.19.18.18,0,0,1-.18.19l-.94,0a.19.19,0,1,1,0-.37h0Z"/><path class="cls-6" d="M13.35,33.78l.92-.13h0a.19.19,0,1,1,.05.37l-.94.13a.18.18,0,0,1-.21-.15.19.19,0,0,1,.16-.21h0Z"/><path class="cls-6" d="M15.17,33.47l.44-.12.45-.13h0a.19.19,0,0,1,.23.12.19.19,0,0,1-.13.23l-.46.13-.46.13a.19.19,0,0,1-.22-.14.18.18,0,0,1,.14-.22Z"/><path class="cls-6" d="M16.91,32.89l.81-.41h0a.19.19,0,0,1,.25.08.18.18,0,0,1-.08.24l-.85.44a.19.19,0,1,1-.17-.33h0Z"/><path class="cls-6" d="M18.47,32a6.67,6.67,0,0,0,.68-.62.18.18,0,0,1,.26.25,6.22,6.22,0,0,1-.71.65.19.19,0,0,1-.26,0,.19.19,0,0,1,0-.25Z"/><path class="cls-6" d="M19.71,30.65c.08-.13.17-.25.24-.39l.2-.4v0a.18.18,0,0,1,.24-.08.19.19,0,0,1,.08.25l-.22.43a4.06,4.06,0,0,1-.25.41.18.18,0,0,1-.31-.18Z"/><path class="cls-6" d="M20.4,29a2.26,2.26,0,0,0,0-.86.18.18,0,0,1,.13-.21.18.18,0,0,1,.22.13,2.59,2.59,0,0,1,0,1A.18.18,0,1,1,20.4,29Z"/><path class="cls-6" d="M20,27.42a1.5,1.5,0,0,0-.72-.42.18.18,0,0,1-.12-.22.17.17,0,0,1,.22-.12,1.88,1.88,0,0,1,.87.51.18.18,0,0,1-.25.25Z"/><path class="cls-6" d="M18.41,27a2.77,2.77,0,0,0-.41.12,3.6,3.6,0,0,0-.39.2h0a.17.17,0,0,1-.23-.07.18.18,0,0,1,.08-.24c.14-.07.28-.16.44-.23a2.85,2.85,0,0,1,.48-.13.18.18,0,0,1,.21.14.17.17,0,0,1-.15.2Z"/><path class="cls-6" d="M17,27.85a3.44,3.44,0,0,0-.5.74.18.18,0,0,1-.23.07.17.17,0,0,1-.08-.23,4.39,4.39,0,0,1,.54-.81.18.18,0,1,1,.27.23Z"/><path class="cls-6" d="M16.13,29.42a4.48,4.48,0,0,0-.15.89.18.18,0,0,1-.18.16.17.17,0,0,1-.16-.18,4.37,4.37,0,0,1,.15-1,.17.17,0,0,1,.21-.12.17.17,0,0,1,.13.21Z"/><path class="cls-6" d="M16,31.2a4.4,4.4,0,0,0,.24.86.17.17,0,0,1-.09.22.17.17,0,0,1-.23-.09,5.15,5.15,0,0,1-.26-.93.17.17,0,0,1,.14-.2.17.17,0,0,1,.2.14Z"/><path class="cls-6" d="M16.7,32.85a4.24,4.24,0,0,0,.58.69.17.17,0,0,1,0,.24.18.18,0,0,1-.24,0,4.42,4.42,0,0,1-.62-.74.16.16,0,0,1,0-.23.17.17,0,0,1,.24,0Z"/><path class="cls-6" d="M18,34.11a6.13,6.13,0,0,0,.78.46.17.17,0,0,1,.07.23.16.16,0,0,1-.22.07,6.75,6.75,0,0,1-.82-.48.18.18,0,0,1-.05-.24.19.19,0,0,1,.24,0Z"/><path class="cls-6" d="M19.6,35l.87.28h0a.17.17,0,0,1,.1.21.17.17,0,0,1-.21.11l-.9-.3a.16.16,0,0,1-.11-.21.17.17,0,0,1,.21-.11h0Z"/><path class="cls-6" d="M21.37,35.45l.91.17h0a.16.16,0,0,1,.13.19.16.16,0,0,1-.19.13l-.93-.17a.17.17,0,0,1-.13-.2.16.16,0,0,1,.19-.13h0Z"/><path class="cls-6" d="M23.2,35.77l.92.12h0a.16.16,0,0,1,0,.32l-.94-.11a.18.18,0,0,1-.14-.19.16.16,0,0,1,.18-.14h0Z"/><path class="cls-6" d="M25.05,36,26,36h0a.16.16,0,0,1,.15.17.17.17,0,0,1-.17.16L25,36.3a.16.16,0,0,1-.15-.17A.17.17,0,0,1,25,36h0Z"/><path class="cls-6" d="M26.9,36.06h.94a.16.16,0,0,1,.16.16.16.16,0,0,1-.16.16H26.9a.16.16,0,0,1,0-.32Z"/><path class="cls-6" d="M28.76,36l.93-.07h0a.16.16,0,0,1,.17.15.15.15,0,0,1-.15.17l-.93.07a.15.15,0,0,1-.17-.15.15.15,0,0,1,.14-.17h0Z"/><path class="cls-6" d="M30.61,35.85l.92-.13h0a.16.16,0,0,1,.18.13.15.15,0,0,1-.13.18l-.93.14a.16.16,0,0,1-.18-.14.17.17,0,0,1,.13-.18h0Z"/><path class="cls-6" d="M32.44,35.55l.91-.2h0a.16.16,0,0,1,.19.12.16.16,0,0,1-.12.19l-.92.2a.14.14,0,0,1-.18-.12.16.16,0,0,1,.11-.19h0Z"/><path class="cls-6" d="M34.24,35.12l.89-.27h0a.16.16,0,0,1,.19.11.15.15,0,0,1-.1.19l-.9.28a.17.17,0,0,1-.2-.11.16.16,0,0,1,.11-.19Z"/><path class="cls-6" d="M36,34.54l.86-.34h0a.16.16,0,0,1,.2.09.16.16,0,0,1-.09.2l-.87.34a.16.16,0,0,1-.2-.09.15.15,0,0,1,.08-.2h0Z"/><path class="cls-6" d="M37.72,33.83l.83-.41h0a.14.14,0,0,1,.2.07.15.15,0,0,1-.06.2l-.85.42a.16.16,0,0,1-.2-.07.15.15,0,0,1,.07-.21Z"/><path class="cls-6" d="M39.37,33l.77-.5h0a.15.15,0,0,1,.21,0,.15.15,0,0,1,0,.21l-.8.52a.15.15,0,0,1-.16-.26h0Z"/><path class="cls-6" d="M40.84,31.89a4.25,4.25,0,0,0,.57-.7.17.17,0,0,1,.21,0,.15.15,0,0,1,0,.21,4.9,4.9,0,0,1-.61.74.16.16,0,0,1-.22,0,.17.17,0,0,1,0-.21Z"/><path class="cls-6" d="M41.82,30.4a3,3,0,0,0,.19-.87.15.15,0,0,1,.3,0,4.47,4.47,0,0,1-.2.95.16.16,0,0,1-.2.09.16.16,0,0,1-.09-.19Z"/><path class="cls-6" d="M42,28.63a2.75,2.75,0,0,0-.27-.84.16.16,0,0,1,.06-.2.14.14,0,0,1,.2.06,2.89,2.89,0,0,1,.3.93.14.14,0,0,1-.12.17.15.15,0,0,1-.17-.12Z"/><path class="cls-6" d="M41.16,27.14a1.31,1.31,0,0,0-.8-.23.14.14,0,0,1-.15-.14.15.15,0,0,1,.14-.15,1.49,1.49,0,0,1,.51.06,1.3,1.3,0,0,1,.46.22.14.14,0,0,1-.16.24Z"/><path class="cls-6" d="M39.56,27.19a2.12,2.12,0,0,0-.63.6.15.15,0,0,1-.24-.17,2.87,2.87,0,0,1,.71-.68.15.15,0,0,1,.2,0,.15.15,0,0,1,0,.21Z"/><path class="cls-6" d="M38.54,28.58a3.11,3.11,0,0,0-.08.44,2.13,2.13,0,0,0,0,.44.15.15,0,1,1-.29,0c0-.16,0-.33,0-.49a4.1,4.1,0,0,1,.1-.48.14.14,0,0,1,.17-.1.14.14,0,0,1,.1.17Z"/><path class="cls-6" d="M38.57,30.35a3.76,3.76,0,0,0,.33.84.14.14,0,0,1-.06.19.15.15,0,0,1-.2-.06,5.31,5.31,0,0,1-.35-.89.15.15,0,0,1,.1-.18.16.16,0,0,1,.18.1Z"/><path class="cls-6" d="M39.4,31.94l.31.32a1.29,1.29,0,0,0,.17.16l.17.14h0a.14.14,0,0,1-.17.21l-.19-.15a1.37,1.37,0,0,1-.18-.16l-.34-.35a.15.15,0,0,1,0-.2.14.14,0,0,1,.2,0h0Z"/><path class="cls-6" d="M40.83,33a6.19,6.19,0,0,0,.85.32.14.14,0,0,1,.1.17.15.15,0,0,1-.18.1,6,6,0,0,1-.89-.34.15.15,0,0,1-.07-.19.14.14,0,0,1,.19-.06Z"/><path class="cls-6" d="M42.58,33.56l.45.06c.15,0,.31,0,.46.06h0a.14.14,0,0,1,.12.15.14.14,0,0,1-.15.12L43,33.9l-.47-.07a.14.14,0,1,1,0-.27h0Z"/><path class="cls-6" d="M44.41,33.73l.93,0h0a.15.15,0,0,1,.14.14.13.13,0,0,1-.14.13l-.94,0a.14.14,0,1,1,0-.27h0Z"/><path class="cls-6" d="M46.26,33.64l.91-.14h0a.14.14,0,0,1,.16.12.13.13,0,0,1-.12.15l-.93.14a.13.13,0,0,1-.15-.11.13.13,0,0,1,.11-.15h0Z"/><path class="cls-6" d="M48.08,33.29,49,33h0a.14.14,0,0,1,.08.26l-.91.26a.13.13,0,0,1-.07-.25h0Z"/><path class="cls-6" d="M49.83,32.72l.85-.38h0a.13.13,0,0,1,.1.24l-.86.38a.13.13,0,0,1-.1-.24Z"/><path class="cls-6" d="M51.5,31.92l.8-.48h0a.13.13,0,0,1,.18,0,.13.13,0,0,1,0,.18l-.81.49a.14.14,0,0,1-.18,0,.13.13,0,0,1,0-.18Z"/><path class="cls-6" d="M53.06,30.92l.73-.57h0a.14.14,0,0,1,.17.21l-.75.58a.13.13,0,0,1-.18,0,.14.14,0,0,1,0-.18h0Z"/><path class="cls-6" d="M54.49,29.74l.67-.65h0a.13.13,0,0,1,.19,0,.14.14,0,0,1,0,.18l-.68.65a.14.14,0,0,1-.18,0,.12.12,0,0,1,0-.18Z"/><path class="cls-6" d="M55.81,28.43l.64-.68h0a.13.13,0,1,1,.18.18L56,28.6a.13.13,0,0,1-.18,0,.12.12,0,0,1,0-.18Z"/><path class="cls-6" d="M57.07,27.05l.62-.69a.13.13,0,0,1,.18,0,.14.14,0,0,1,0,.18l-.62.7a.13.13,0,1,1-.19-.17Z"/><path class="cls-6" d="M58.31,25.66l.63-.7a.13.13,0,0,1,.18,0,.12.12,0,0,1,0,.17h0l-.62.69h0a.13.13,0,0,1-.18,0,.12.12,0,0,1,0-.17Z"/><path class="cls-6" d="M59.59,24.28l.66-.66a.12.12,0,1,1,.17.17h0l-.66.65h0a.12.12,0,0,1-.17,0,.13.13,0,0,1,0-.18Z"/><path class="cls-6" d="M60.94,23l.73-.6a.12.12,0,1,1,.15.19h0l-.72.6h0a.12.12,0,0,1-.17,0,.12.12,0,0,1,0-.17Z"/><path class="cls-6" d="M62.43,21.83l.81-.5a.12.12,0,0,1,.12.21h0l-.79.49h0a.12.12,0,0,1-.17,0,.12.12,0,0,1,0-.16Z"/><path class="cls-6" d="M64.09,20.91l.44-.17a.11.11,0,0,1,.15.06.12.12,0,0,1-.06.16h0l-.42.17h0a.11.11,0,0,1-.15-.06.12.12,0,0,1,.06-.16Z"/><path class="cls-6" d="M26.91,13.33H21.37a.65.65,0,0,0-.65.65v5.54a6.19,6.19,0,1,0,6.19-6.19Z"/><path class="cls-5" d="M26.91,14.62H22v4.9a4.9,4.9,0,1,0,4.9-4.9Z"/><path class="cls-3" d="M26.21,23.66a4.84,4.84,0,0,0,4.84-4.84h0a4.83,4.83,0,0,0-1.26-3.25,4.81,4.81,0,0,0-2.88-1H22v4.9A4.83,4.83,0,0,0,23,22.4a4.83,4.83,0,0,0,3.25,1.26Z"/><path class="cls-6" d="M26.09,1.46a5.38,5.38,0,0,0-5.37,5.37v4.64a.73.73,0,0,0,.73.73h4.64a5.37,5.37,0,1,0,0-10.74Z"/><path class="cls-5" d="M26.09,2.92a3.92,3.92,0,0,0-3.91,3.91v3.91h3.91a3.91,3.91,0,1,0,0-7.82Z"/><path class="cls-3" d="M25.47,3.44h0a3.92,3.92,0,0,0-2.12.61,3.89,3.89,0,0,0-1.17,2.78v3.91h3.91a3.89,3.89,0,0,0,2.78-1.17,3.92,3.92,0,0,0,.61-2.12A4,4,0,0,0,25.47,3.44Z"/><path class="cls-6" d="M13.16,12.37H18.7a.65.65,0,0,0,.65-.65V6.19a6.19,6.19,0,1,0-6.19,6.18Z"/><path class="cls-5" d="M13.16,11.08h4.9V6.19a4.9,4.9,0,1,0-4.9,4.89Z"/><path class="cls-3" d="M13.86,2.05A4.84,4.84,0,0,0,9,6.89H9a4.83,4.83,0,0,0,1.26,3.25,4.87,4.87,0,0,0,2.88.94h4.9V6.19a4.84,4.84,0,0,0-.95-2.89,4.82,4.82,0,0,0-3.25-1.25Z"/></g></g></g></svg>