<svg width="24" height="24" viewBox="0 0 24 24" fill="none" xmlns="http://www.w3.org/2000/svg">
<path d="M20.0306 17.0306L17.0306 20.0306C16.8899 20.1713 16.699 20.2503 16.5 20.2503C16.301 20.2503 16.1101 20.1713 15.9694 20.0306C15.8286 19.8898 15.7496 19.699 15.7496 19.4999C15.7496 19.3009 15.8286 19.11 15.9694 18.9693L17.6897 17.2499H4.5C4.30109 17.2499 4.11032 17.1709 3.96967 17.0303C3.82902 16.8896 3.75 16.6988 3.75 16.4999C3.75 16.301 3.82902 16.1103 3.96967 15.9696C4.11032 15.8289 4.30109 15.7499 4.5 15.7499H17.6897L15.9694 14.0306C15.8286 13.8898 15.7496 13.699 15.7496 13.4999C15.7496 13.3009 15.8286 13.11 15.9694 12.9693C16.1101 12.8286 16.301 12.7495 16.5 12.7495C16.699 12.7495 16.8899 12.8286 17.0306 12.9693L20.0306 15.9693C20.1004 16.039 20.1557 16.1217 20.1934 16.2127C20.2312 16.3038 20.2506 16.4014 20.2506 16.4999C20.2506 16.5985 20.2312 16.6961 20.1934 16.7871C20.1557 16.8782 20.1004 16.9609 20.0306 17.0306Z" fill="#C1A17D"/>
<path d="M6.96948 11.0306C7.11021 11.1713 7.30108 11.2503 7.5001 11.2503C7.69912 11.2503 7.89 11.1713 8.03073 11.0306C8.17146 10.8898 8.25052 10.699 8.25052 10.4999C8.25052 10.3009 8.17146 10.11 8.03073 9.9693L6.31041 8.24993H19.5001C19.699 8.24993 19.8898 8.17091 20.0304 8.03026C20.1711 7.88961 20.2501 7.69884 20.2501 7.49993C20.2501 7.30102 20.1711 7.11025 20.0304 6.9696C19.8898 6.82895 19.699 6.74993 19.5001 6.74993H6.31041L8.03073 5.03055C8.17146 4.88982 8.25052 4.69895 8.25052 4.49993C8.25052 4.30091 8.17146 4.11003 8.03073 3.9693C7.89 3.82857 7.69912 3.74951 7.5001 3.74951C7.30108 3.74951 7.11021 3.82857 6.96948 3.9693L3.96948 6.9693C3.89974 7.03896 3.84443 7.12167 3.80668 7.21272C3.76894 7.30377 3.74951 7.40137 3.74951 7.49993C3.74951 7.59849 3.76894 7.69609 3.80668 7.78713C3.84443 7.87818 3.89974 7.9609 3.96948 8.03055L6.96948 11.0306Z" fill="black"/>
</svg>
